<?xml version="1.0" encoding="UTF-8"?>
<svg xmlns="http://www.w3.org/2000/svg" version="1.1" viewBox="0 0 841.89 595.28">
  <defs>
    <style>
      .cls-1 {
        fill: #50d071;
      }

      .cls-2 {
        fill: none;
      }

      .cls-3 {
        fill: #00fe01;
      }

      .cls-4 {
        fill: #e0f2e4;
      }
    </style>
  </defs>
  <!-- Generator: Adobe Illustrator 28.7.1, SVG Export Plug-In . SVG Version: 1.2.0 Build 142)  -->
  <g>
    <g id="Layer_1">
      <g>
        <path class="cls-3" d="M561.41,245.98c.13,3.52.33,7.03.37,10.55.02,1.3-.2,2.63-.54,3.89-.69,2.52-2.92,3.65-5.35,2.67-1.19-.48-2.32-1.24-3.3-2.09-2.51-2.17-4.91-4.47-7.36-6.71-.29-.26-.61-.5-1.14-.93-.16,1.74-.17,3.24-.47,4.68-.51,2.42-.94,4.92-1.88,7.18-1.87,4.52-6.51,5.06-9.51,1.19-1.22-1.57-2.23-3.34-3.1-5.14-2.48-5.08-6.06-9.21-10.49-12.66-2.31-1.8-3.3-1.87-5.73-.16-1.8,1.27-2.9,3.12-3.94,5-.4.72-.13,1.31.17,1.95,2.24,4.86,3.7,9.97,4.71,15.21.75,3.9.77,7.84.21,11.76-.13.94-.44,1.91-.92,2.72-1.28,2.19-4,2.29-5.51.25-.32-.43-.58-.96-.73-1.48-1.46-4.97-2.93-9.94-4.31-14.94-1.12-4.05-1.11-8.21-.87-12.36.09-1.51-.28-2.7-1.21-3.8-2.01-2.38-4.02-4.75-6.01-7.13-.47-.56-.96-.76-1.61-.35-.12.07-.25.12-.37.2-3.3,2.22-6.99,3.6-10.73,4.86-1.46.49-1.44.57-.76,2.09,2.87,6.45,6.26,12.62,9.59,18.83,4.83,9.01,9.06,18.34,13.55,27.53.76,1.55,1.56,3.09,2.26,4.67.45,1.02,1.01,1.08,1.95.65,6.27-2.9,12.73-5.44,18.82-8.7,11.24-6.01,22.73-11.39,34.59-16.07,5.2-2.05,10.3-4.42,15.24-7.02,9.09-4.79,18.53-8.63,28.31-11.74,6.45-2.05,12.77-4.52,19.15-6.77,1.56-.55,3.18-.92,4.75-1.44.68-.23,1.38-.54,1.94-.98,1.37-1.05,2.76-1.21,4-.33,1.28.91,1.67,2.45.91,4.07-1.85,3.94-4.72,7.13-7.74,10.18-2.66,2.69-5.84,4.65-9.19,6.32-4.95,2.46-9.94,4.87-14.96,7.17-6.17,2.82-12.14,6.01-17.92,9.57-6.73,4.15-13.86,7.49-21.16,10.51-9.6,3.97-18.78,8.78-27.92,13.69-5.23,2.81-10.71,5.15-16.08,7.7-.92.44-1.85.85-2.96,1.35,2.23,3.48,4.19,6.9,7.3,9.43,5.36,4.37,10.74,8.7,16.11,13.06,2.19,1.78,4.63,3.01,7.43,3.49.54.09,1.08.22,1.62.36,3.48.9,5.61,4.01,5.12,7.47-.51,3.58-3.46,6.08-7.13,5.82-5.93-.42-11.35-2.38-16.11-5.99-5.4-4.09-10.76-8.23-16.11-12.39-3.3-2.57-5.98-5.74-8.32-9.2-.93-1.37-1.84-2.76-2.75-4.15-1-1.52-1.01-1.53-2.55-.68-2.78,1.54-5.54,3.14-8.34,4.64-6.15,3.3-12.31,6.59-18.49,9.84-6.62,3.48-12.85,7.59-19.08,11.72-5.82,3.85-11.84,7.4-17.78,11.07-4.41,2.72-8.79,5.5-13.28,8.08-4.01,2.3-8.12,4.45-12.27,6.49-1.52.75-3.3.98-4.96,1.44-1.42.39-2.93.27-4.15,1.52-.85.87-2.21.63-3.26-.16-1.11-.83-1.51-1.98-1.15-3.31.45-1.66.89-3.34,1.51-4.94.91-2.33,2.73-3.99,4.6-5.52,5.25-4.28,10.54-8.51,15.86-12.7,2.17-1.71,4.46-3.26,6.72-4.86,6.72-4.75,13.53-9.37,20.15-14.24,7.82-5.75,16.14-10.67,24.65-15.3,6.13-3.34,12.15-6.88,18.24-10.3.89-.5,1.15-.9.64-1.91-4.37-8.71-8.67-17.46-13-26.19-.98-1.98-1.94-3.98-3.07-5.88-3.23-5.42-5.89-11.11-8.23-16.96-.28-.69-.59-1.36-.97-2.22-2.12,1.55-4.07,2.97-6.02,4.39-2.18,1.58-4.33,3.22-6.58,4.71-1.09.72-1.29,1.47-1.15,2.74.69,6.53,1.22,13.07,1.85,19.61.3,3.16,1.39,6.03,3.47,8.48,1.3,1.54,1.33,3.14.08,4.45-1.2,1.25-3.08,1.36-4.43-.06-1.16-1.23-2.22-2.67-2.93-4.21-3.15-6.85-5.95-13.84-7.36-21.3-.29-1.55-.35-1.53-1.96-1.1-.47.12-.94.23-1.42.31-1.74.28-3.2-.46-3.73-1.89-.55-1.48-.03-2.97,1.43-3.95.92-.61,1.88-1.16,2.85-1.7.74-.42,1.02-.9.88-1.84-1.29-8.82-2.6-17.64-3.72-26.48-.89-7.06-1.78-14.15-1.37-21.29.22-3.85.72-7.69,1.16-11.53.11-.95.34-1.94.77-2.79,1.9-3.68,1.97-7.72,2.52-11.68.26-1.85.51-3.7.93-5.51.23-.99.65-2,1.23-2.82,1.44-2.03,4.24-1.91,5.56.2.4.63.65,1.37.87,2.1.36,1.19.71,2.39.93,3.61.71,3.95,2.4,7.47,4.54,10.82,7.44,11.62,13.64,23.88,19.13,36.52.74,1.71,1.59,3.37,2.35,5.08.36.82.76,1.16,1.73.79,3.42-1.3,6.96-2.29,10.04-4.39.96-.65,2.06-1.14,3.17-1.52,2.55-.86,4.77-.25,6.54,1.83,1.43,1.69,2.85,3.39,4.29,5.07.62.72,1.27,1.42,2.01,2.23.54-.68.97-1.22,1.39-1.75,1.39-1.77,3.09-3.15,5.1-4.16,3.53-1.77,6.89-1.65,10.13.76,5.47,4.06,9.97,8.94,13.02,15.08.49.99,1.06,1.94,1.61,2.9.06.1.22.15.42.28,1.02-2.05.97-4.29,1.19-6.45.23-2.3-.17-4.54-.97-6.71-1.96-5.29-3.01-10.77-3.44-16.38-.06-.76-.11-1.52-.08-2.28.07-1.73,1.16-2.95,2.73-3.13,1.6-.18,2.93.9,3.45,2.66.83,2.78,1.7,5.54,2.59,8.3,2.33,7.26,7.12,12.7,12.86,17.45.14.12.35.14.67.25,0-1.99.24-3.93-.04-5.78-1.15-7.6-1.44-15.27-1.91-22.93-.09-1.43.26-2.62,1.56-3.36,1.05-.59,2.19-.65,3.13.11.61.49,1.04,1.24,1.41,1.95.34.66.41,1.47.74,2.14,2.29,4.65,4.57,9.31,6.94,13.91.82,1.59,1.89,3.05,2.89,4.54.3.45.71.86,1.12,1.22,1.81,1.57,3.08,1.28,3.93-.93,1.05-2.74,1.02-5.62.44-8.39-.75-3.57-1.94-7.05-2.95-10.57-.71-2.46-1.51-4.89-2.15-7.36-.27-1.05-.74-1.74-1.79-2.02-.26-.07-.51-.22-.75-.35-4.18-2.21-4.97-7.5-1.63-10.87,1.75-1.77,4.22-1.84,5.82.13,1.02,1.25,1.64,2.85,2.34,4.34.58,1.25.58,1.34,1.72.54,1.47-1.04,2.86-2.18,4.29-3.26,1.43-1.08,2.85-2.2,4.33-3.21.79-.54,1.68-.98,2.58-1.31,4.08-1.47,6.91-.24,8.46,3.78.67,1.73,1.05,3.57,1.55,5.37,1.03,3.73,1.98,7.48,3.1,11.18.69,2.28,1.98,4.27,3.76,5.88,2.99,2.7,6.97,2.27,9.57-.98-.09-.11-.15-.26-.26-.31-5.76-2.66-8.81-7.6-10.25-13.36-1.48-5.9-.96-11.82,2.57-17.14,1.41-2.12,3.22-3.78,5.46-4.97,3.11-1.65,6.01-1.18,8.52,1.3,1.51,1.5,2.41,3.36,3.22,5.27.4.94.75,1.9,1.22,3.09.45-.43.71-.71,1-.95,1.82-1.54,4.09-1.15,5.25.92.23.42.49.88.52,1.34.12,1.82,1.18,3.11,2.45,4.18,2.21,1.86,4.5,3.65,6.83,5.37,1.45,1.07,3.2,1.22,4.97,1.11,1.51-.1,1.67-.27,1.41-1.79-.56-3.34-1.21-6.66-1.76-10-1.25-7.59-1.94-15.23-1.46-22.92.24-3.93.73-7.84,1.19-11.75.14-1.15.45-2.33.91-3.39,1.17-2.69,4.09-3.52,6.6-1.98,1.47.9,2.5,2.23,3.16,3.76,2.98,6.96,5.14,14.2,5.79,21.74.39,4.52-.06,9.11-.23,13.67-.09,2.44-.72,4.8-1.93,6.93-.7,1.24-.71,2.4-.42,3.75,1.86,8.88,4.67,17.48,7.22,26.17,2.36,8.04,6.38,15.29,9.86,22.81,1.28,2.77,3.4,4.67,6.19,5.83.63.26,1.32.4,1.99.53.86.16,1.29-.23,1.28-1.13,0-.62.02-1.25.16-1.85.36-1.58,1.6-2.49,3.16-2.42,1.56.07,2.77,1.09,2.85,2.74.07,1.51.04,3.07-.28,4.53-.56,2.57-2.34,4.01-4.95,4.33-2.16.26-4.27.03-6.31-.81-2.86-1.19-5.3-2.97-7.47-5.14-4.85-4.86-9.2-10.16-12.93-15.91-1.86-2.87-3.26-6.1-4.45-9.33-2.51-6.81-4.91-13.66-6.38-20.79-.21-.99-.44-1.65-1.72-1.45-4.92.75-9.09-1.03-12.88-3.99-.87-.68-1.74-1.35-2.76-2.14-.21.53-.38.94-.53,1.35-.73,2.08-1.36,4.2-2.22,6.23-.48,1.12-1.21,2.21-2.06,3.09-2.92,3.03-5.82,6.09-8.94,8.9-3.36,3.03-7.38,4.31-11.92,3.19-3.01-.74-5.3-2.58-7.24-4.93-2.52-3.06-3.93-6.65-4.94-10.41-.91-3.4-1.68-6.84-2.56-10.26-.7-2.76-.98-2.86-3.35-1.16-1.29.92-2.48,1.99-3.76,2.93-1.9,1.38-3.78,2.8-5.79,4-.96.57-1.26,1.01-.91,2.08,1.15,3.48,2.21,6.98,3.33,10.47,1.34,4.18,2.2,8.45,1.76,12.85-.19,1.97-.58,4-1.34,5.81-2.42,5.72-8.58,7.1-13.27,2.99-1.49-1.3-2.65-2.99-3.87-4.57-.67-.87-1.17-1.87-1.74-2.81-.2-.44-.4-.89-.61-1.33-.15.05-.31.09-.46.14.19.98.38,1.95.57,2.93ZM447.77,207.32s0,0,0,0c-.16-.95-.31-1.9-.47-2.84.05-.65.15-1.32-.67-1.76,0,1.99-.41,3.97.21,5.93.15,1.8.3,3.6.45,5.4.2,3.17.25,6.35.61,9.5,1.3,11.45,2.7,22.9,4.07,34.34.15,1.27.34,2.54.54,4.01.6-.32.98-.47,1.29-.7,3.19-2.31,6.37-4.63,9.54-6.97,1.29-.95,1.27-.97.64-2.54-2.91-7.24-5.84-14.47-8.73-21.72-1.28-3.2-2.59-6.4-3.68-9.67-1.25-3.73-2.27-7.53-3.39-11.3-.13-.56-.27-1.13-.4-1.69ZM620.31,215.25c.22-5.57-1.53-10.61-3.9-15.5-.12-.25-.29-.47-.45-.69-.56-.83-1.28-1.1-2.07-.37-1,.93-2.06,1.84-2.85,2.94-1.93,2.66-2.02,5.78-1.98,8.92.06,4.43,2.16,7.9,5.19,10.9.61.6,1.5.98,2.33,1.28,1.95.72,2.49.48,2.92-1.54.41-1.94.54-3.95.8-5.92ZM650.94,172.05c-.5,3.53,2.63,19.95,4.1,22.69.93-7.92-1.76-15.25-4.1-22.69Z"/>
        <path class="cls-3" d="M181.94,332.26c1.7-1.01,3.18-1.98,4.74-2.78.67-.34.83-.77.96-1.42,1.6-8.13,3.22-16.27,4.86-24.39,1.29-6.36,2.59-12.72,3.93-19.08,2.24-10.61,4.52-21.21,6.76-31.82.23-1.08.26-2.2.52-3.27.38-1.53.75-3.1,1.38-4.54.68-1.55,2.36-2.1,3.84-1.52,1.42.55,2.41,2.03,1.85,3.5-1.32,3.42-1.03,6.93-1.06,10.44-.05,8.16-.54,16.31-1.45,24.41-1.29,11.54-2.8,23.06-6.25,34.2-1.33,4.29-2.91,8.5-4.35,12.75-.6,1.78-.59,1.81,1.07,2.65,2.03,1.03,4.07,2.07,6.13,3.04,3.54,1.66,6.65,3.96,9.63,6.44,4.74,3.94,9.74,7.52,14.97,10.77,6.95,4.32,13.31,9.43,19.65,14.57,4.84,3.93,9.92,7.49,15.34,10.59,3.84,2.2,7.61,4.53,11.22,7.08,5.93,4.18,12.25,7.5,19.15,9.74,2.44.79,4.27,2.3,5.12,4.76.98,2.85.46,5.48-1.65,7.68-2.16,2.25-4.82,2.94-7.78,1.98-6.27-2.03-12.33-4.52-17.82-8.24-3.55-2.41-6.94-5.09-10.66-7.18-10.63-5.96-19.97-13.6-29.16-21.49-4.56-3.92-9.39-7.52-13.97-11.42-5.01-4.26-9.53-9.03-13.78-14.06-1.83-2.16-3.76-4.25-5.78-6.23-1.02-1-2.34-1.69-3.54-2.5-.67-.45-1.16-.43-1.64.42-2.17,3.82-3.63,7.9-4.69,12.14-.12.48,0,1.09.2,1.57,5.03,12.28,8.84,25.03,14.47,37.07,2.87,6.13,5.66,12.31,8.32,18.53,1.9,4.44,3.52,9.01,5.31,13.5.53,1.35,1.21,2.64,1.77,3.98,1.95,4.67-.01,9.84-4.49,11.89-4.42,2.03-9.58.28-11.85-4.17-1.44-2.83-2.78-5.73-3.91-8.69-3.17-8.26-6.61-16.4-10.26-24.47-4.44-9.83-8.17-19.94-11.73-30.13-3.12-8.93-6.71-17.7-10.15-26.52-3.62-9.27-7.42-18.46-10.92-27.78-3.18-8.48-6.64-16.84-10.34-25.1-2.73-6.09-4.23-12.54-5.03-19.18-.36-3-.39-6.06-1.65-8.93-.57-1.31.23-2.81,1.5-3.5,1.28-.69,2.89-.52,3.74.71.73,1.05,1.31,2.3,1.58,3.55.5,2.36,1.58,4.34,2.89,6.34,3.31,5.02,6.34,10.22,9.61,15.26,8.09,12.49,13.88,26.09,19.42,39.81,1.03,2.56,2.19,5.08,3.29,7.61.22.5.48.99.69,1.42Z"/>
        <path class="cls-3" d="M316.38,348.27c-.45,1.7-.74,3.47-1.39,5.09-.71,1.77-1.65,3.49-2.7,5.08-1.14,1.73-2.92,2.43-5.01,2.42-3-.01-5.73-.78-8.11-2.67-.3-.24-.64-.43-1.31-.87,0,1.22.05,2.09,0,2.96-.24,3.79-.38,7.59-.82,11.35-.21,1.75-.9,3.48-1.6,5.12-1.04,2.44-2.98,3.64-5.7,3.75-5.2.21-9.46-1.7-12.91-5.48-1.25-1.37-2.42-2.85-3.46-4.4-4.66-6.9-8.6-14.16-11.55-21.98-1.97-5.23-4.27-10.34-6.43-15.51-.43-1.02-.89-2.03-1.25-3.07-.27-.78-.51-1.59-.61-2.4-.24-1.89.47-3.39,1.86-4.04,1.59-.74,2.95-.22,4.19.85,1.58,1.36,2.61,2.85,1.55,5.06-.19.4.01,1.08.21,1.55,2.83,6.91,5.63,13.82,8.55,20.69,2.58,6.07,6.02,11.67,9.86,17.01.84,1.17,1.88,2.21,2.94,3.2,1.46,1.35,3.22,2.11,5.24,2.24,1.81.11,2.16.03,2.48-1.69.52-2.77.94-5.58,1.15-8.39.32-4.23,0-8.41-1.3-12.5-.71-2.23-1.18-4.55-1.62-6.85-1.14-5.85-2.7-11.55-5-17.07-.79-1.89-1.19-3.96-1.6-5.98-.19-.92-.06-1.93.1-2.88.23-1.33,1.06-2.22,2.4-2.57,1.27-.33,2.43.02,3.18,1,.78,1.02,1.46,2.19,1.88,3.41.56,1.62.91,3.33,1.21,5.03.77,4.3,1.88,8.48,3.86,12.41,1.86,3.7,3.52,7.51,5.36,11.22.54,1.1,1.31,2.13,2.13,3.04.63.7,1.44,1.33,2.29,1.71,2.44,1.11,3.39.74,4.27-1.77.62-1.75,1.14-3.57,1.37-5.41.69-5.45.78-10.86-1.32-16.13-2.05-5.13-3.87-10.35-5.78-15.54-.1-.26-.2-.52-.27-.78-.46-1.65.18-3.13,1.64-3.81,1.54-.72,3.14-.18,4.06,1.41.31.53.51,1.13.8,1.69.49.95,1.01,1.9,1.54,2.9.25-.25.32-.28.33-.33,1.33-6.62,6.79-9.89,13.37-7.83,1.88.59,3.6,1.71,5.37,2.63.59.3,1.12.73,1.91,1.25.05-.85.11-1.45.12-2.04.13-5.2,2.56-9.28,6.42-12.51,3.54-2.97,7.71-2.42,10.5,1.25,1.04,1.36,1.94,2.87,2.66,4.43,3.14,6.85,6.18,13.74,8.55,20.91.69,2.08,1.67,4.09,2.73,6.02.96,1.75,2.78,2.17,4.42,1.12,2.24-1.43,4.01-3.38,5.48-5.59.51-.78.04-1.12-.54-1.45-2.39-1.35-4.31-3.23-5.88-5.46-3.16-4.5-4.54-9.62-4.86-14.99-.23-3.85-.31-7.73.79-11.53,1.1-3.81,3.06-7.1,5.74-9.97,1.54-1.65,3.37-2.86,5.72-3.06,4.04-.35,6.93,1.27,8.74,4.95.27.56.5,1.14.71,1.72.21.59.55.88,1.22.88,2.69-.03,4.22,1.58,5,3.91,1.25,3.74,2.19,7.56,2.23,11.56.04,4.55,4.16,8.89,8.72,9.27,1.71.14,3.05-.58,3.86-1.95.76-1.28,1.47-2.73,1.7-4.18.75-4.66.44-9.18-1.97-13.47-1.89-3.37-3.46-6.93-5.09-10.43-.51-1.1-1.16-1.46-2.39-1.43-1.78.04-3.62-.04-5.34-.44-3.37-.77-4.8-3.44-3.91-6.79.57-2.17,1.84-3.87,3.61-5.17,2.27-1.67,5.53-1.17,7.71,1.13.65.69,1.23,1.45,1.94,2.3.57-.6,1.02-1.11,1.5-1.58,1.97-1.94,3.81-4.04,5.95-5.77,3.49-2.82,6.89-2.17,9.35,1.56,2.42,3.67,3.71,7.86,5.28,11.92.9,2.32,1.71,4.68,2.64,6.98.49,1.21,1.16,2.35,1.78,3.51.74,1.39,1.91,2.13,3.49,2.26.55.05,1.11.11,1.63.28,1.5.49,2.34,1.88,2.12,3.39-.21,1.47-1.45,2.64-3.01,2.6-3.37-.09-6.55-.88-8.51-3.88-1.46-2.24-2.74-4.64-3.78-7.11-1.72-4.07-3.15-8.26-4.75-12.39-.45-1.15-1.06-2.25-1.62-3.36-.42-.84-.99-.86-1.63-.22-1.22,1.22-2.45,2.44-3.65,3.68-.91.94-1.71,2.02-2.7,2.86-.95.81-.85,1.49-.34,2.49,2.02,4.01,3.93,8.08,5.92,12.11,1.63,3.28,2.5,6.72,2.36,10.4-.11,2.83-.1,5.67-1.1,8.39-.82,2.24-1.98,4.24-3.76,5.88-2.35,2.15-5.11,2.97-8.22,2.58-2.58-.32-4.97-1.16-7.1-2.7-.37-.27-.78-.5-1.28-.81-.77,1.92-1.39,3.75-2.24,5.46-.73,1.47-1.6,2.9-2.61,4.2-1.29,1.65-3.13,2.58-5.21,2.63-1.27.03-1.8.63-2.35,1.6-1.78,3.18-4.3,5.71-7.14,7.98-3.7,2.95-10.95,3.12-14.09-2.87-1.06-2.01-2.13-4.06-2.84-6.2-2.34-7.11-5.35-13.93-8.4-20.75-.53-1.19-1.23-2.32-1.97-3.4-.68-.98-1.21-1.06-2.03-.27-2.2,2.11-3.81,4.55-3.88,7.75-.15,6.84.67,13.5,3.32,19.89.87,2.1,1.51,4.3,2.25,6.46.09.26.19.52.26.79.45,1.84-.22,3.4-1.71,3.99-1.61.64-3.24,0-4.13-1.76-2.01-3.96-3.41-8.14-4.54-12.44-1.39-5.24-4.04-9.66-9.04-12.34-1.48-.8-3-.99-4.61-.74-1.89.29-2.45.87-2.54,2.89-.24,5.34-.01,10.65,1.54,15.82,1.35,4.5,2.73,8.99,4.07,13.49.27.92.46,1.88.6,2.84.28,1.94-.65,3.44-2.32,3.85-1.63.41-3.17-.56-3.78-2.41-.29-.89-.51-1.8-.76-2.7-.1.02-.21.04-.31.06ZM379.44,301.91c-.18-2.48-.14-4.99-.59-7.42-.45-2.43-1.25-4.81-2.13-7.13-.74-1.97-2.34-2.21-3.95-.83-.16.13-.31.28-.45.43-2.1,2.27-3.76,4.83-4.32,7.9-1.12,6.18-.74,12.26,1.82,18.08.99,2.24,2.43,4.18,4.47,5.61,1.45,1.01,1.49,1,2.14-.63,2.06-5.13,3.18-10.44,2.99-16.01ZM384.5,314.03c.74-1.59,1.22-2.83.73-4.7-.71,1.64-1.24,2.87-.73,4.7ZM393.93,273.57c-.11.07-.26.11-.3.2-.03.07.07.21.11.31.14-.08.27-.16.41-.25-.07-.09-.14-.18-.21-.27Z"/>
        <path class="cls-3" d="M696.32,202.77c.15-1.31.22-2.41.42-3.49.3-1.62,1.72-2.69,3.25-2.56,1.55.13,2.84,1.36,2.86,3,.02,1.5-.12,3.02-.36,4.51-.22,1.33-1.47,2.27-2.79,2.33-1.38.07-2.59-.67-3.05-1.98-.22-.63-.25-1.33-.33-1.8Z"/>
        <path class="cls-2" d="M561.41,245.98c-.19-.98-.38-1.95-.57-2.93.15-.05.31-.09.46-.14l.61,1.33c-.16.58-.33,1.16-.49,1.74Z"/>
        <path class="cls-2" d="M650.94,172.05c2.34,7.43,5.03,14.77,4.1,22.69-1.46-2.74-4.6-19.16-4.1-22.69Z"/>
        <path class="cls-2" d="M447.77,207.32c-.15.63-.4,1.25-.43,1.88-.07,1.62-.04,3.24-.05,4.85-.15-1.8-.3-3.6-.45-5.4.15-1.39.3-2.78.46-4.18.16.95.31,1.9.47,2.84Z"/>
        <path class="cls-2" d="M447.3,204.48c-.15,1.39-.3,2.78-.46,4.18-.62-1.96-.2-3.94-.21-5.93.82.44.72,1.1.67,1.76Z"/>
        <path class="cls-4" d="M448.17,209.02c-.13-.56-.27-1.13-.4-1.69.13.56.27,1.13.4,1.69Z"/>
        <path class="cls-1" d="M384.5,314.03c-.51-1.83.02-3.06.73-4.7.49,1.87,0,3.11-.73,4.7Z"/>
        <path class="cls-2" d="M393.93,273.57c.07.09.14.18.21.27-.14.08-.27.16-.41.25-.04-.11-.14-.24-.11-.31.05-.09.2-.14.3-.2Z"/>
      </g>
    </g>
  </g>
</svg>